<svg height="1054" width="720" xmlns="http://www.w3.org/2000/svg">
<rect height="1054" fill="#555" width="720"></rect>
<text fill="#7f7" font-family="Courier New" font-size="12" xml:space="preserve">
<tspan x="10" y="26">22 megabytes installed</tspan>
<tspan x="10" y="42"></tspan>
<tspan x="10" y="58">node_modules</tspan>
<tspan x="10" y="74">└─┬ auth0-lock@10.14.0 </tspan>
<tspan x="10" y="90">  ├─┬ auth0-js@8.5.0 </tspan>
<tspan x="10" y="106">  │ ├── base64-js@1.2.0 </tspan>
<tspan x="10" y="122">  │ └── winchan@0.2.0 </tspan>
<tspan x="10" y="138">  ├── blueimp-md5@2.3.1 </tspan>
<tspan x="10" y="154">  ├─┬ fbjs@0.3.2 </tspan>
<tspan x="10" y="170">  │ ├── core-js@1.2.7 </tspan>
<tspan x="10" y="186">  │ ├─┬ loose-envify@1.3.1 </tspan>
<tspan x="10" y="202">  │ │ └── js-tokens@3.0.1 </tspan>
<tspan x="10" y="218">  │ ├─┬ promise@7.1.1 </tspan>
<tspan x="10" y="234">  │ │ └── asap@2.0.5 </tspan>
<tspan x="10" y="250">  │ ├── ua-parser-js@0.7.12 </tspan>
<tspan x="10" y="266">  │ └── whatwg-fetch@0.9.0 </tspan>
<tspan x="10" y="282">  ├─┬ idtoken-verifier@1.0.1 </tspan>
<tspan x="10" y="298">  │ ├── crypto-js@3.1.9-1 </tspan>
<tspan x="10" y="314">  │ └── jsbn@0.1.1 </tspan>
<tspan x="10" y="330">  ├── immutable@3.8.1 </tspan>
<tspan x="10" y="346">  ├─┬ jsonp@0.2.1 </tspan>
<tspan x="10" y="362">  │ └─┬ debug@2.6.4 </tspan>
<tspan x="10" y="378">  │   └── ms@0.7.3 </tspan>
<tspan x="10" y="394">  ├── password-sheriff@1.1.0 </tspan>
<tspan x="10" y="410">  ├─┬ react@15.5.4 </tspan>
<tspan x="10" y="426">  │ ├─┬ fbjs@0.8.12 </tspan>
<tspan x="10" y="442">  │ │ ├─┬ isomorphic-fetch@2.2.1 </tspan>
<tspan x="10" y="458">  │ │ │ ├─┬ node-fetch@1.6.3 </tspan>
<tspan x="10" y="474">  │ │ │ │ ├─┬ encoding@0.1.12 </tspan>
<tspan x="10" y="490">  │ │ │ │ │ └── iconv-lite@0.4.16 </tspan>
<tspan x="10" y="506">  │ │ │ │ └── is-stream@1.1.0 </tspan>
<tspan x="10" y="522">  │ │ │ └── whatwg-fetch@2.0.3 </tspan>
<tspan x="10" y="538">  │ │ └── setimmediate@1.0.5 </tspan>
<tspan x="10" y="554">  │ ├── object-assign@4.1.1 </tspan>
<tspan x="10" y="570">  │ └─┬ prop-types@15.5.8 </tspan>
<tspan x="10" y="586">  │   └── fbjs@0.8.12 </tspan>
<tspan x="10" y="602">  ├─┬ react-addons-css-transition-group@15.5.2 </tspan>
<tspan x="10" y="618">  │ └── fbjs@0.8.12 </tspan>
<tspan x="10" y="634">  ├─┬ react-dom@15.5.4 </tspan>
<tspan x="10" y="650">  │ └── fbjs@0.8.12 </tspan>
<tspan x="10" y="666">  ├─┬ superagent@3.5.2 </tspan>
<tspan x="10" y="682">  │ ├── component-emitter@1.2.1 </tspan>
<tspan x="10" y="698">  │ ├── cookiejar@2.1.1 </tspan>
<tspan x="10" y="714">  │ ├── extend@3.0.0 </tspan>
<tspan x="10" y="730">  │ ├─┬ form-data@2.1.4 </tspan>
<tspan x="10" y="746">  │ │ ├── asynckit@0.4.0 </tspan>
<tspan x="10" y="762">  │ │ ├─┬ combined-stream@1.0.5 </tspan>
<tspan x="10" y="778">  │ │ │ └── delayed-stream@1.0.0 </tspan>
<tspan x="10" y="794">  │ │ └─┬ mime-types@2.1.15 </tspan>
<tspan x="10" y="810">  │ │   └── mime-db@1.27.0 </tspan>
<tspan x="10" y="826">  │ ├── formidable@1.1.1 </tspan>
<tspan x="10" y="842">  │ ├── methods@1.1.2 </tspan>
<tspan x="10" y="858">  │ ├── mime@1.3.4 </tspan>
<tspan x="10" y="874">  │ ├── qs@6.4.0 </tspan>
<tspan x="10" y="890">  │ └─┬ readable-stream@2.2.9 </tspan>
<tspan x="10" y="906">  │   ├── buffer-shims@1.0.0 </tspan>
<tspan x="10" y="922">  │   ├── core-util-is@1.0.2 </tspan>
<tspan x="10" y="938">  │   ├── inherits@2.0.3 </tspan>
<tspan x="10" y="954">  │   ├── isarray@1.0.0 </tspan>
<tspan x="10" y="970">  │   ├── process-nextick-args@1.0.7 </tspan>
<tspan x="10" y="986">  │   ├── string_decoder@1.0.0 </tspan>
<tspan x="10" y="1002">  │   └── util-deprecate@1.0.2 </tspan>
<tspan x="10" y="1018">  ├── trim@0.0.1 </tspan>
<tspan x="10" y="1034">  └── url-join@1.1.0</tspan>
</text>
</svg>
